<svg xmlns="http://www.w3.org/2000/svg" width="44" height="44" viewBox="0 0 44 44">
  <defs>
    <style>
      .cls-1 {
        fill: #414141;
        fill-rule: evenodd;
      }
    </style>
  </defs>
  <path id="ic11.svg" class="cls-1" d="M1435,1531.49a1,1,0,0,1-2,0c0-.69-2.28-1.96-6-1.96s-6,1.27-6,1.96a1,1,0,0,1-2,0c0-.69-2.28-1.96-6-1.96s-6,1.27-6,1.96a1,1,0,0,1-2,0c0-.69-2.28-1.96-6-1.96s-6,1.27-6,1.96a1,1,0,0,1-2,0c0-9.96,9.33-18.09,21-18.54v-2.97a1,1,0,0,1,2,0v2.97C1425.67,1513.4,1435,1521.53,1435,1531.49Zm-41.69-2.8a2.847,2.847,0,0,1,.35-0.17,15.638,15.638,0,0,1,10.68,0,4.636,4.636,0,0,1,.74.37,33.341,33.341,0,0,1,2.04-10.2,13.806,13.806,0,0,1,1.92-3.48C1401,1516.56,1394.7,1521.93,1393.31,1528.69Zm19.69-13.82c-2.57,0-5.4,5.6-5.91,13.93,0.18-.09.35-0.19,0.57-0.28a15.638,15.638,0,0,1,10.68,0,6.055,6.055,0,0,1,.57.28,29.27,29.27,0,0,0-2.38-10.51,0.97,0.97,0,0,1,.47-1.31,1.022,1.022,0,0,1,1.34.47,31.357,31.357,0,0,1,2.58,11.44,4.636,4.636,0,0,1,.74-0.37,15.638,15.638,0,0,1,10.68,0,2.847,2.847,0,0,1,.35.17C1431.08,1520.85,1422.88,1514.87,1413,1514.87Zm-6.24,29.86a0.969,0.969,0,0,1,.05,1.38,2.873,2.873,0,0,0-.81,2,3,3,0,0,0,6,0v-15.64a1,1,0,0,1,2,0v15.64a5,5,0,0,1-10,0,4.825,4.825,0,0,1,1.35-3.34A1.015,1.015,0,0,1,1406.76,1544.73Z" transform="translate(-1391 -1509)"/>
</svg>

