<svg xmlns="http://www.w3.org/2000/svg" width="58" height="49.97" viewBox="0 0 58 49.97">
  <defs>
    <style>
      .cls-1 {
        fill: #414141;
        fill-rule: evenodd;
      }
    </style>
  </defs>
  <path id="ic2.svg" class="cls-1" d="M1195,1405.98v-8.03a9.047,9.047,0,0,0-6.81-8.76l-4.76,6.75a2.348,2.348,0,0,1-1.93,1h-0.01a2.343,2.343,0,0,1-1.92-1l-4.88-6.99a5.952,5.952,0,0,0-4.01,2.21l-0.28.36a10.023,10.023,0,0,1,4.6,8.43v7.03h-2v-7.03a8.03,8.03,0,0,0-8-8.03h-3.18a5.364,5.364,0,0,1-9.64,0H1149a8.03,8.03,0,0,0-8,8.03v7.03h-2v-7.03a10.029,10.029,0,0,1,10-10.03h3v-3.54a9.036,9.036,0,0,1-4-7.51v-8.34a8.23,8.23,0,0,1-3-6.71c0-2.48,1.96-5.29,2.19-5.61l0.88-1.22,0.78,1.29a6.623,6.623,0,0,0,6.15,3.53h2a9.026,9.026,0,0,1,9,9.03v8.03a9.036,9.036,0,0,1-4,7.51v3.54h3a9.849,9.849,0,0,1,3.57.67l0.55-.68a7.959,7.959,0,0,1,6.24-3.01H1178v-1.81a9.088,9.088,0,0,1-5-8.22v-1.01h1c3.9,0,9.36-3.48,11.37-9.12l1.88,0.68c-1.92,5.38-7.23,9.82-12.19,10.39a6.7,6.7,0,0,0,6.44,6.08,6.786,6.786,0,0,0,6.5-7.02,7.383,7.383,0,0,0-1.27-4.18l1.65-1.14a9.4,9.4,0,0,1,1.62,5.32,9.088,9.088,0,0,1-5,8.22v1.81h1a10.945,10.945,0,0,1,6,1.8v-14.34a10.508,10.508,0,0,0-17.98-7.42,10.353,10.353,0,0,0-3.02,7.41c0.04,5.63-.36,7.51-1.11,8.99-0.24.49-.51,0.99-0.78,1.5-0.55,1.03-1.11,2.09-1.57,3.15l-1.83-.79c0.48-1.14,1.07-2.24,1.63-3.3,0.27-.5.53-0.99,0.77-1.46,0.59-1.18.93-2.88,0.89-8.08a12.5,12.5,0,0,1,12.5-12.55,12.541,12.541,0,0,1,12.5,12.55v16.03a11.038,11.038,0,0,1,3,7.56v8.03h-2Zm-38-13.05c1.63,0,3-.92,3-2.01v-3.54a8.756,8.756,0,0,1-6,0v3.54C1154,1392.01,1155.37,1392.93,1157,1392.93Zm7-14.06v-8.03a7.018,7.018,0,0,0-7-7.02h-2a8.44,8.44,0,0,1-6.94-3.2,7.527,7.527,0,0,0-1.06,3.2c0,2.9,1.56,6.02,5,6.02h2v2.01h-2a6.911,6.911,0,0,1-2-.3v7.32A7,7,0,1,0,1164,1378.87Zm19,10.04v-3.16a7.575,7.575,0,0,1-3,0v3.16h-2.89l4.1,5.87a0.327,0.327,0,0,0,.29.15h0a0.356,0.356,0,0,0,.3-0.15l4.13-5.87H1183Zm-36,18.07h-2v-5.02h2v5.02Zm22,0h-2v-5.02h2v5.02Zm22-1h-2v-7.03h2v7.03Z" transform="translate(-1139 -1357)"/>
</svg>

