<svg xmlns="http://www.w3.org/2000/svg" width="56.41" height="54" viewBox="0 0 56.41 54">
  <defs>
    <style>
      .cls-1 {
        fill: #414141;
        fill-rule: evenodd;
      }
    </style>
  </defs>
  <path id="ic5.svg" class="cls-1" d="M1356.8,1384.2h-2.4v-2.4h2.4a1.2,1.2,0,0,0,1.2-1.2v-24a1.2,1.2,0,0,0-1.2-1.2H1322a1.2,1.2,0,0,0-1.2,1.2v23.99a1.208,1.208,0,0,0,1.21,1.21h3.59v7.19l5.4-7.19h11.4v2.4h-10.2l-4.76,6.35-0.03.03a2.413,2.413,0,0,1-1.8.82,2.5,2.5,0,0,1-.85-0.15,2.387,2.387,0,0,1-1.56-2.25v-4.8h-1.19a3.615,3.615,0,0,1-3.61-3.61V1356.6a3.6,3.6,0,0,1,3.6-3.6h34.8a3.6,3.6,0,0,1,3.6,3.6v24A3.6,3.6,0,0,1,1356.8,1384.2Zm-37.2,6.66a5.562,5.562,0,0,1-1.37,3.77c2.04,0.9,3.77,2.44,3.77,3.97v2.4h-2.4v-2.37c-0.2-.67-2.66-2.42-4.8-2.42s-4.6,1.75-4.8,2.42V1401h-2.4v-2.4c0-1.53,1.73-3.07,3.77-3.97a5.562,5.562,0,0,1-1.37-3.77v-1.37c0-3.02,2.06-5.29,4.8-5.29s4.8,2.27,4.8,5.29v1.37Zm-2.4-1.37c0-1.39-.75-2.89-2.4-2.89s-2.4,1.5-2.4,2.89v1.37c0,1.39.75,2.89,2.4,2.89s2.4-1.5,2.4-2.89v-1.37Zm-2.16-7.47a7.145,7.145,0,0,0-3.84-1.41c-2.14,0-4.6,1.75-4.8,2.42v2.37H1304V1383c0-1.53,1.73-3.07,3.77-3.97a5.267,5.267,0,0,1-1.01-1.68c-0.01-.02-0.01-0.05-0.02-0.08a5.281,5.281,0,0,1-.33-1.92c0-.03-0.01-0.06-0.01-0.09h0v-1.37c0-3.02,2.06-5.29,4.8-5.29h0c2.74,0,4.8,2.27,4.8,5.29v1.37h0a6.5,6.5,0,0,1-.09,1.09,6.568,6.568,0,0,1-.21.76c-0.02.08-.04,0.17-0.06,0.24a5.129,5.129,0,0,1-.43.88v0.02a5.745,5.745,0,0,1-.54.73,0.176,0.176,0,0,0-.04.05,10.147,10.147,0,0,1,1.84,1.07Zm-1.44-8.13c0-1.39-.75-2.89-2.4-2.89s-2.4,1.5-2.4,2.89v1.37c0,1.39.75,2.89,2.4,2.89s2.4-1.5,2.4-2.89v-1.37Zm15.77,26.74a5.562,5.562,0,0,1-1.37-3.77v-1.37c0-3.02,2.06-5.29,4.8-5.29s4.8,2.27,4.8,5.29v1.37a5.562,5.562,0,0,1-1.37,3.77c2.04,0.9,3.77,2.44,3.77,3.97v2.4h-2.4v-2.37c-0.2-.67-2.66-2.42-4.8-2.42s-4.6,1.75-4.8,2.42V1407h-2.4v-2.4C1325.6,1403.07,1327.33,1401.53,1329.37,1400.63Zm5.83-5.14c0-1.39-.75-2.89-2.4-2.89s-2.4,1.5-2.4,2.89v1.37c0,1.39.75,2.89,2.4,2.89s2.4-1.5,2.4-2.89v-1.37Zm9.77-3.26a5.562,5.562,0,0,1-1.37-3.77v-1.37c0-3.02,2.06-5.29,4.8-5.29s4.8,2.27,4.8,5.29v1.37a5.562,5.562,0,0,1-1.37,3.77c2.04,0.9,3.77,2.44,3.77,3.97v2.4h-2.4v-2.37c-0.2-.67-2.66-2.42-4.8-2.42s-4.6,1.75-4.8,2.42v2.37h-2.4v-2.4C1341.2,1394.67,1342.93,1393.13,1344.97,1392.23Zm1.03-3.77c0,1.39.75,2.89,2.4,2.89s2.4-1.5,2.4-2.89v-1.37c0-1.39-.75-2.89-2.4-2.89s-2.4,1.5-2.4,2.89v1.37Z" transform="translate(-1304 -1353)"/>
</svg>

