<svg xmlns="http://www.w3.org/2000/svg" width="69.03" height="69.094" viewBox="0 0 69.03 69.094" data-prefix="isty2z648"><path d="M67.06 64.26c.27-.88.4-1.807.58-2.7.31-1.5.63-3 .94-4.5.09-.446.18-.892.28-1.337a9.575 9.575 0 0 0-7.55-11.234l-8.29-1.63a9.557 9.557 0 0 0-11.23 7.545l-.2.934a57.674 57.674 0 0 1-23.86-23.88l.92-.19a9.569 9.569 0 0 0 7.54-11.234l-1.63-8.292A9.567 9.567 0 0 0 13.33.198c-1.42.3-2.83.59-4.25.882-3.1.644-6.32.635-7.78 3.969a20.855 20.855 0 0 0-1.09 5.253 28.476 28.476 0 0 0-.16 5.837 43.215 43.215 0 0 0 3.35 13.6 66.811 66.811 0 0 0 14.67 21.324 71.208 71.208 0 0 0 13.41 10.578 54.569 54.569 0 0 0 14.02 6.112 35.307 35.307 0 0 0 13.26 1.16c2.63-.313 6.28-.7 7.73-3.283a6.826 6.826 0 0 0 .57-1.366" fill-rule="evenodd" class="path-iielvjovg"></path></svg>
