<?xml version="1.0" encoding="utf-8"?><svg viewBox="0 0 502.66 502.66" xmlns="http://www.w3.org/2000/svg" xmlns:xlink="http://www.w3.org/1999/xlink"><style>:root>svg{display:none}:root>svg:target{display:block}</style><svg preserveAspectRatio="xMidYMid" data-prefix="iupy5k41h" viewBox="0 0 7 5" id="arrow-left" xmlns="http://www.w3.org/2000/svg"><path d="M7 3.28a.702.702 0 00-.224-.511L4.02.178a.79.79 0 00-1.071 0L.193 2.769a.694.694 0 00-.004 1.018.79.79 0 001.075.004l2.22-2.088 2.22 2.088a.79.79 0 001.075-.004A.7.7 0 007 3.28z" fill-rule="evenodd" class="apath-inecf794z"/></svg><svg preserveAspectRatio="xMidYMid" data-prefix="iwo105mhz" viewBox="0 0 7 5" id="arrow-right" xmlns="http://www.w3.org/2000/svg"><path d="M7 3.28a.702.702 0 00-.224-.511L4.02.178a.79.79 0 00-1.071 0L.193 2.769a.694.694 0 00-.004 1.018.79.79 0 001.075.004l2.22-2.088 2.22 2.088a.79.79 0 001.075-.004A.7.7 0 007 3.28z" fill-rule="evenodd" class="bpath-if1of2p2u"/></svg><svg viewBox="0 0 60 56" id="coffee" xmlns="http://www.w3.org/2000/svg"><path d="M52.88 37.78C57.53 39.74 60 42.21 60 45c0 3.42-3.8 6.45-10.71 8.51l-.58-1.91C54.53 49.86 58 47.39 58 45c0-1.9-2.21-3.86-6.09-5.46-.42 2.13-3.3 4.12-8.09 5.57A3.986 3.986 0 0140 48a6 6 0 01-.75-.06v.01l-13.62-2.5c-.03.07-.04.14-.07.2A5.083 5.083 0 0121 49a4.229 4.229 0 01-2.15-.6L5.6 40.75C3.28 42.09 2 43.59 2 45c0 4.26 11.5 9 28 9a75.851 75.851 0 0012.83-1.04l.34 1.97A77.708 77.708 0 0130 56C15.25 56 0 51.89 0 45c0-1.4.68-3.4 3.63-5.39l-1.91-1.1A8.942 8.942 0 017.5 30a2.865 2.865 0 01.5.07V19c0-3.98 8.22-6.09 15.92-6.75l.17 1.99C14.48 15.06 10 17.57 10 19a1.9 1.9 0 00.95 1.32C14.75 18.27 21.94 17 30 17c7.9 0 15.25 1.29 19.05 3.32A1.9 1.9 0 0050 19c0-2.04-7.79-5-20-5v-2c10.93 0 22 2.4 22 7v2.88a4.611 4.611 0 012.73-.88A5.271 5.271 0 0160 26.27a10.682 10.682 0 01-3.49 8.17 64.53 64.53 0 01-3.63 3.34zM24.3 39.5l.19.15a5.177 5.177 0 011.52 3.84l10.19 1.87A4.906 4.906 0 0136 44a5.856 5.856 0 01.49-2.37l-12.81-2.5c.21.13.43.25.62.37zM4.26 34.21A1.425 1.425 0 003.5 34a1.5 1.5 0 00-.77 2.79l1.77 1.02L17 45.02V45a5.98 5.98 0 01.6-2.69zm1.83-1.23l14.54 8.83-.92.9A3.5 3.5 0 0019 45a1.944 1.944 0 002 2 3.111 3.111 0 002.71-2.11 3.48 3.48 0 00-.55-3.74c-4.05-2.42-14.89-8.94-14.89-8.94A1.486 1.486 0 007.5 32a1.5 1.5 0 00-1.41.98zM30 19c-6.82 0-13.11.96-16.85 2.49C16.52 22.85 22.4 24 30 24s13.48-1.15 16.84-2.5C43.08 19.96 36.79 19 30 19zm20 3.1C46.33 24.67 38.13 26 30 26s-16.33-1.33-20-3.9v8.82c1.5.9 5.2 3.12 8.63 5.19l20.83 4.06-.56 1.17c-.05.09-.11.21-.19.35A4.223 4.223 0 0038 44a1.77 1.77 0 002 2 2.032 2.032 0 002-2 4.326 4.326 0 00-.25-1.63l1.86-.74a5.25 5.25 0 01.31 1.35C48.33 41.54 50 39.85 50 39V22.1zm4.73.9A2.9 2.9 0 0052 25.17V35.9c.99-.86 2.17-1.95 3.09-2.87A8.671 8.671 0 0058 26.27 3.278 3.278 0 0054.73 23zM40 6h-6a1.86 1.86 0 00-2 2v2h-2V8a3.822 3.822 0 014-4h6a1.944 1.944 0 002-2V0h2v2a3.916 3.916 0 01-4 4zm-14 6a1.732 1.732 0 00-2-2h-7c-2.32 0-4-1.5-4-3.56A3.751 3.751 0 0117 3h1c1.44 0 2-.56 2-2V0h2v1a3.643 3.643 0 01-4 4h-1a1.819 1.819 0 00-2 1.44A1.763 1.763 0 0017 8h7a3.68 3.68 0 014 4v3h-2v-3z"/></svg><svg viewBox="0 0 44 44" id="conf" xmlns="http://www.w3.org/2000/svg"><path d="M44 22.49a1 1 0 01-2 0c0-.69-2.28-1.96-6-1.96s-6 1.27-6 1.96a1 1 0 01-2 0c0-.69-2.28-1.96-6-1.96s-6 1.27-6 1.96a1 1 0 01-2 0c0-.69-2.28-1.96-6-1.96s-6 1.27-6 1.96a1 1 0 01-2 0C0 12.53 9.33 4.4 21 3.95V.98a1 1 0 012 0v2.97c11.67.45 21 8.58 21 18.54zm-41.69-2.8a2.847 2.847 0 01.35-.17 15.638 15.638 0 0110.68 0 4.636 4.636 0 01.74.37 33.341 33.341 0 012.04-10.2 13.806 13.806 0 011.92-3.48C10 7.56 3.7 12.93 2.31 19.69zM22 5.87c-2.57 0-5.4 5.6-5.91 13.93.18-.09.35-.19.57-.28a15.638 15.638 0 0110.68 0 6.055 6.055 0 01.57.28 29.27 29.27 0 00-2.38-10.51.97.97 0 01.47-1.31 1.022 1.022 0 011.34.47 31.357 31.357 0 012.58 11.44 4.636 4.636 0 01.74-.37 15.638 15.638 0 0110.68 0 2.847 2.847 0 01.35.17C40.08 11.85 31.88 5.87 22 5.87zm-6.24 29.86a.969.969 0 01.05 1.38 2.873 2.873 0 00-.81 2 3 3 0 006 0V23.47a1 1 0 012 0v15.64a5 5 0 01-10 0 4.825 4.825 0 011.35-3.34 1.015 1.015 0 011.41-.04z"/></svg><svg viewBox="0 0 60 59" id="ic1" xmlns="http://www.w3.org/2000/svg"><path d="M58.55 48.9l-3.19-3.21 1.45-1.47L60 47.44zm-14.57-5.32a15.894 15.894 0 00-3.73 10.22V59H38.2v-5.2a17.943 17.943 0 014.22-11.56l10.81-12.79a1.506 1.506 0 00.36-.94 1.524 1.524 0 00-2.66-1.09l-13.78 15.1a2.983 2.983 0 01-2.17.95 3.084 3.084 0 01-.68-.08 5.4 5.4 0 01-8.62 0 3.084 3.084 0 01-.68.08 2.944 2.944 0 01-2.16-.95L9.06 27.42a1.518 1.518 0 00-1.14-.51 1.489 1.489 0 00-1.53 1.6 1.455 1.455 0 00.37.94l10.8 12.79a17.943 17.943 0 014.22 11.56V59h-2.05v-5.2A15.839 15.839 0 0016 43.58L5.19 30.79a3.619 3.619 0 012.73-5.95 3.593 3.593 0 012.65 1.18l13.78 15.09a.843.843 0 00.65.29.892.892 0 00.89-.89v-1.46a7.232 7.232 0 01-3.08-5.93v-4.23a5.515 5.515 0 01-2.05-4.46 9.608 9.608 0 011.17-4.52l.73-1.23.93 1.09c.47.55 1.97 1.97 3.32 1.97h3.08a7.219 7.219 0 017.18 7.24v4.14a7.249 7.249 0 01-3.07 5.93v1.46a.885.885 0 001.54.6l13.78-15.09a3.57 3.57 0 016.22 2.49 3.527 3.527 0 01-.85 2.28zm-13.99-.11a3.187 3.187 0 002.6-1.25 2.955 2.955 0 01-.55-1.71v-.48a6.35 6.35 0 01-4.1 0v.48a2.955 2.955 0 01-.55 1.71 3.187 3.187 0 002.6 1.25zm5.13-10.35v-4.14a5.156 5.156 0 00-5.13-5.17h-3.08a6.138 6.138 0 01-3.74-1.59 7.4 7.4 0 00-.36 2.21c0 1.43.47 3.2 4.14 4.22l-.55 2a12.052 12.052 0 01-1.54-.55v3.02a5.13 5.13 0 1010.26 0zm10.26-9.31h-2.05a13.531 13.531 0 00-5.6-10.97l1.19-1.68a15.624 15.624 0 016.46 12.65zM14.9 26.87a15.812 15.812 0 01.3-7.38l1.98.58a13.466 13.466 0 00-.53 3.74 13.842 13.842 0 00.26 2.65zm36.64-6.17h-4.37l-.18-.8a17.667 17.667 0 00-2.48-5.85l-.47-.7 2.97-3-3.68-3.71-2.97 3-.7-.47a17.022 17.022 0 00-5.79-2.51l-.8-.18V2.07h-6.16v4.41l-.79.18a17.249 17.249 0 00-5.8 2.5l-.7.48-2.97-3-3.68 3.71 2.97 3-.46.7A17.461 17.461 0 0013 19.9l-.19.8H8.44v2.07H6.39v-4.14h4.8a19.638 19.638 0 012.13-5.01l-3.25-3.27 6.58-6.64 3.25 3.27a19.535 19.535 0 014.96-2.14V0h10.26v4.84a19.6 19.6 0 014.97 2.14l3.24-3.27 6.58 6.64-3.24 3.27a19.971 19.971 0 012.12 5.01h4.8v4.14h-2.05V20.7zM1.45 48.89L0 47.42l3.19-3.21 1.45 1.46zm13.19 3.6l-2.54 3.8-1.7-1.15 2.53-3.8zm34.82 2.67l-1.74 1.08-2.33-3.81 1.75-1.09z"/></svg><svg viewBox="0 0 60 60" id="ic2" xmlns="http://www.w3.org/2000/svg"><path d="M40 8.5v-1A3.6 3.6 0 0143.5 4 3.5 3.5 0 0147 7.5v1a3.5 3.5 0 01-3.5 3.5A3.543 3.543 0 0140 8.5zm5 0v-1A1.5 1.5 0 0043.5 6 1.588 1.588 0 0042 7.5v1a1.538 1.538 0 001.5 1.5A1.5 1.5 0 0045 8.5zM55 24H32v-2h2.18a2.972 2.972 0 01.12-2.32c.07-.14 1.57-3.06 2.23-4.27A2.847 2.847 0 0139.07 14h8.86a2.847 2.847 0 012.54 1.41c.66 1.21 2.15 4.13 2.22 4.26a2.947 2.947 0 01.13 2.33H55v2zm-14-2h5v-2h-5v2zm9.9-1.44s-1.53-2.99-2.18-4.19a.9.9 0 00-.79-.37h-8.86a.9.9 0 00-.79.37c-.65 1.2-2.19 4.21-2.19 4.21A.958.958 0 0036 21a1 1 0 001 1h2v-2a2.006 2.006 0 012-2h5a2.006 2.006 0 012 2v2h2a1 1 0 001-1 .976.976 0 00-.1-.44zM57 28H45.27l-9.77 5.77a1.694 1.694 0 01-.85.23 1.567 1.567 0 01-.81-.22 1.644 1.644 0 01-.84-1.44V28h-3a3.009 3.009 0 01-3-3v-6h2v6a1 1 0 001 1h5v5.74L44.72 26H57a1 1 0 001-1V3a1 1 0 00-1-1H30a1 1 0 00-1 1v14h-2V3a3.009 3.009 0 013-3h27a3.009 3.009 0 013 3v22a3.009 3.009 0 01-3 3zm-35 1.11v2.2c1.64.63 5.95 2.28 7.81 3.12.06.03.23.13.23.13a4.032 4.032 0 011.8 2.31c1.22 4.14 2.86 13.21 3.01 14.06A3.79 3.79 0 0135 52a3.906 3.906 0 01-.56 2H45v2H4a4 4 0 01-4-4 3.79 3.79 0 01.15-1.07c.15-.85 1.79-9.92 3.01-14.06a4.032 4.032 0 011.8-2.31 2.167 2.167 0 01.23-.12c1.86-.85 6.17-2.5 7.81-3.13v-2.58A6.992 6.992 0 0110 23v-5.28A8.271 8.271 0 018 12a7.7 7.7 0 011.4-3.89l.87-1.22.8 1.27C12.25 10.04 13.74 11 15.5 11H19c3.81 0 6 2.55 6 7v5a7.4 7.4 0 01-3 6.11zM9 54h17V43a1 1 0 00-1-1H10a1 1 0 00-1 1v11zM6.02 36.25a2.044 2.044 0 00-.94 1.18c-1.22 4.15-2.96 13.8-2.97 13.9l-.03.1A2.239 2.239 0 002 52a2.006 2.006 0 002 2h3v-4H5v-2h2v-5a3.009 3.009 0 013-3h15a3.009 3.009 0 013 3v5h2v2h-2v4h3a2.006 2.006 0 002-2 2.239 2.239 0 00-.08-.57l-.03-.1c-.01-.1-1.75-9.75-2.97-13.9a1.981 1.981 0 00-.9-1.15c-1.67-.77-5.44-2.23-7.3-2.94a4.677 4.677 0 01-8.44 0c-1.85.71-5.62 2.17-7.26 2.91zM23 18c0-5-3.01-5-4-5h-3.5a6.676 6.676 0 01-5.15-2.46A3.9 3.9 0 0010 12c0 1.93.81 5 3 5h1v2h-1a4.089 4.089 0 01-1-.13V23a5 5 0 005 5h1v2h-1a6.652 6.652 0 01-2-.33V32a2.563 2.563 0 005 0v-4.1l.57-.27C21.96 26.97 23 24.98 23 23v-5zm5 42H11v-2h17v2z"/></svg><svg viewBox="0 0 58 49.97" id="ic3" xmlns="http://www.w3.org/2000/svg"><path d="M56 48.98v-8.03a9.047 9.047 0 00-6.81-8.76l-4.76 6.75a2.348 2.348 0 01-1.93 1h-.01a2.343 2.343 0 01-1.92-1l-4.88-6.99a5.952 5.952 0 00-4.01 2.21l-.28.36a10.023 10.023 0 014.6 8.43v7.03h-2v-7.03a8.03 8.03 0 00-8-8.03h-3.18a5.364 5.364 0 01-9.64 0H10a8.03 8.03 0 00-8 8.03v7.03H0v-7.03a10.029 10.029 0 0110-10.03h3v-3.54a9.036 9.036 0 01-4-7.51v-8.34a8.23 8.23 0 01-3-6.71c0-2.48 1.96-5.29 2.19-5.61l.88-1.22.78 1.29A6.623 6.623 0 0016 4.81h2a9.026 9.026 0 019 9.03v8.03a9.036 9.036 0 01-4 7.51v3.54h3a9.849 9.849 0 013.57.67l.55-.68a7.959 7.959 0 016.24-3.01H39v-1.81a9.088 9.088 0 01-5-8.22v-1.01h1c3.9 0 9.36-3.48 11.37-9.12l1.88.68c-1.92 5.38-7.23 9.82-12.19 10.39a6.7 6.7 0 006.44 6.08 6.786 6.786 0 006.5-7.02 7.383 7.383 0 00-1.27-4.18l1.65-1.14A9.4 9.4 0 0151 19.87a9.088 9.088 0 01-5 8.22v1.81h1a10.945 10.945 0 016 1.8V17.36a10.508 10.508 0 00-17.98-7.42A10.353 10.353 0 0032 17.35c.04 5.63-.36 7.51-1.11 8.99-.24.49-.51.99-.78 1.5-.55 1.03-1.11 2.09-1.57 3.15l-1.83-.79c.48-1.14 1.07-2.24 1.63-3.3.27-.5.53-.99.77-1.46.59-1.18.93-2.88.89-8.08A12.5 12.5 0 0142.5 4.81 12.541 12.541 0 0155 17.36v16.03a11.038 11.038 0 013 7.56v8.03h-2zM18 35.93c1.63 0 3-.92 3-2.01v-3.54a8.756 8.756 0 01-6 0v3.54c0 1.09 1.37 2.01 3 2.01zm7-14.06v-8.03a7.018 7.018 0 00-7-7.02h-2a8.44 8.44 0 01-6.94-3.2A7.527 7.527 0 008 6.82c0 2.9 1.56 6.02 5 6.02h2v2.01h-2a6.911 6.911 0 01-2-.3v7.32a7 7 0 1014 0zm19 10.04v-3.16a7.575 7.575 0 01-3 0v3.16h-2.89l4.1 5.87a.327.327 0 00.29.15.356.356 0 00.3-.15l4.13-5.87H44zM8 49.98H6v-5.02h2v5.02zm22 0h-2v-5.02h2v5.02zm22-1h-2v-7.03h2v7.03z"/></svg><svg viewBox="0 0 56.41 54" id="ic4" xmlns="http://www.w3.org/2000/svg"><path d="M52.8 31.2h-2.4v-2.4h2.4a1.2 1.2 0 001.2-1.2v-24a1.2 1.2 0 00-1.2-1.2H18a1.2 1.2 0 00-1.2 1.2v23.99a1.208 1.208 0 001.21 1.21h3.59v7.19L27 28.8h11.4v2.4H28.2l-4.76 6.35-.03.03a2.413 2.413 0 01-1.8.82 2.5 2.5 0 01-.85-.15A2.387 2.387 0 0119.2 36v-4.8h-1.19a3.615 3.615 0 01-3.61-3.61V3.6A3.6 3.6 0 0118 0h34.8a3.6 3.6 0 013.6 3.6v24a3.6 3.6 0 01-3.6 3.6zm-37.2 6.66a5.562 5.562 0 01-1.37 3.77c2.04.9 3.77 2.44 3.77 3.97V48h-2.4v-2.37c-.2-.67-2.66-2.42-4.8-2.42S6.2 44.96 6 45.63V48H3.6v-2.4c0-1.53 1.73-3.07 3.77-3.97A5.562 5.562 0 016 37.86v-1.37c0-3.02 2.06-5.29 4.8-5.29s4.8 2.27 4.8 5.29v1.37zm-2.4-1.37c0-1.39-.75-2.89-2.4-2.89s-2.4 1.5-2.4 2.89v1.37c0 1.39.75 2.89 2.4 2.89s2.4-1.5 2.4-2.89v-1.37zm-2.16-7.47a7.145 7.145 0 00-3.84-1.41c-2.14 0-4.6 1.75-4.8 2.42v2.37H0V30c0-1.53 1.73-3.07 3.77-3.97a5.267 5.267 0 01-1.01-1.68c-.01-.02-.01-.05-.02-.08a5.281 5.281 0 01-.33-1.92c0-.03-.01-.06-.01-.09v-1.37c0-3.02 2.06-5.29 4.8-5.29 2.74 0 4.8 2.27 4.8 5.29v1.37a6.5 6.5 0 01-.09 1.09 6.568 6.568 0 01-.21.76c-.02.08-.04.17-.06.24a5.129 5.129 0 01-.43.88v.02a5.745 5.745 0 01-.54.73.176.176 0 00-.04.05 10.147 10.147 0 011.84 1.07zM9.6 20.89C9.6 19.5 8.85 18 7.2 18s-2.4 1.5-2.4 2.89v1.37c0 1.39.75 2.89 2.4 2.89s2.4-1.5 2.4-2.89v-1.37zm15.77 26.74A5.562 5.562 0 0124 43.86v-1.37c0-3.02 2.06-5.29 4.8-5.29s4.8 2.27 4.8 5.29v1.37a5.562 5.562 0 01-1.37 3.77c2.04.9 3.77 2.44 3.77 3.97V54h-2.4v-2.37c-.2-.67-2.66-2.42-4.8-2.42s-4.6 1.75-4.8 2.42V54h-2.4v-2.4c0-1.53 1.73-3.07 3.77-3.97zm5.83-5.14c0-1.39-.75-2.89-2.4-2.89s-2.4 1.5-2.4 2.89v1.37c0 1.39.75 2.89 2.4 2.89s2.4-1.5 2.4-2.89v-1.37zm9.77-3.26a5.562 5.562 0 01-1.37-3.77v-1.37c0-3.02 2.06-5.29 4.8-5.29s4.8 2.27 4.8 5.29v1.37a5.562 5.562 0 01-1.37 3.77c2.04.9 3.77 2.44 3.77 3.97v2.4h-2.4v-2.37c-.2-.67-2.66-2.42-4.8-2.42s-4.6 1.75-4.8 2.42v2.37h-2.4v-2.4c0-1.53 1.73-3.07 3.77-3.97zM42 35.46c0 1.39.75 2.89 2.4 2.89s2.4-1.5 2.4-2.89v-1.37c0-1.39-.75-2.89-2.4-2.89S42 32.7 42 34.09v1.37z"/></svg><svg viewBox="0 0 502.664 502.664" id="icon" xmlns="http://www.w3.org/2000/svg"><path d="M153.821 358.226L0 274.337v-46.463l153.821-83.414v54.574L46.636 250.523l107.185 53.431v54.272zm26.273 29.358L282.103 115.08h32.227L212.084 387.584h-31.99zm168.749-29.358v-54.272l107.164-52.999-107.164-52.59v-53.927l153.821 83.522v46.183l-153.821 84.083z"/></svg><svg viewBox="0 0 111 70" id="main-logo" xmlns="http://www.w3.org/2000/svg"><path d="M-.5-.5h483v305H-.5V-.5z"/><path d="M124.5 63.5c-1.406.473-2.073 1.473-2 3a32.508 32.508 0 00-3 7c-.617.11-1.117.444-1.5 1l-.5-13a607.902 607.902 0 004-30c2.241-6.71 6.908-9.21 14-7.5a7.93 7.93 0 011 3.5 59.044 59.044 0 00-3.5 18 721.984 721.984 0 00-8.5 18zm98-9c6.353-.599 12.353.568 18 3.5 4.693 2.689 5.027 5.689 1 9a207.428 207.428 0 00-40 28c-13.126 8.335-26.792 15.335-41 21a712.002 712.002 0 0130-41 272.946 272.946 0 0132-20.5z"/><path d="M121.5 31.5a607.902 607.902 0 01-4 30l.5 13c.383-.556.883-.89 1.5-1 .085 1.495-.581 2.495-2 3a171.233 171.233 0 01-.5-32c.751-4.71 2.251-9.044 4.5-13zM124.5 63.5c.073 1.527-.594 2.527-2 3-.073-1.527.594-2.527 2-3zM81.5 99.5c6.153-1.153 12.486-1.32 19-.5.556.383.889.883 1 1.5a218.016 218.016 0 00-20-1z"/><path d="M81.5 99.5c6.686.027 13.352.36 20 1 32.022 11.537 50.855 34.203 56.5 68 3.319 27.77-3.348 52.77-20 75-17.674 19.746-39.84 28.913-66.5 27.5-15.706-3.682-28.706-11.682-39-24 5.423.689 10.756 2.022 16 4 4.655.499 9.322.666 14 .5 2.885.306 5.552-.027 8-1h1c21.029-3.518 34.862-15.518 41.5-36a35.455 35.455 0 002.5-14c.665-3.651.999-7.485 1-11.5.1-6.725-.566-13.225-2-19.5-1.921-15.341-8.255-28.508-19-39.5-13.176-10.71-28.176-14.377-45-11-9.055 2.058-16.222 6.892-21.5 14.5 3.417-10.111 9.917-17.944 19.5-23.5a68.876 68.876 0 0121-9 37.098 37.098 0 0112-1.5zM208.5 165.5c-3.474-1.025-7.14-1.692-11-2a10.098 10.098 0 01-6-1.5 216.7 216.7 0 0135-12c8-.667 16-.667 24 0 3.303 1.007 4.47 3.173 3.5 6.5-14.071 7.961-29.238 10.961-45.5 9z"/><path d="M197.5 163.5c3.86.308 7.526.975 11 2-3.989.384-7.655-.283-11-2zM71.5 213.5a342.838 342.838 0 00-1 37c-2.448.973-5.115 1.306-8 1 .328-11.179-.005-22.179-1-33-.763-.768-1.763-1.268-3-1.5 1.558-.21 2.892-.71 4-1.5-.01-1.517-.677-2.684-2-3.5-8.264-3.498-12.598-9.831-13-19 2.277-13.609 10.277-19.609 24-18 13.639 5.438 17.805 14.938 12.5 28.5-3.155 4.653-7.321 7.986-12.5 10zM114.5 169.5c1.434 6.275 2.1 12.775 2 19.5-.001 4.015-.335 7.849-1 11.5a535.036 535.036 0 00-1-31zM101.5 181.5c2.73 1.442 5.73 2.442 9 3-.124.607-.457.94-1 1-2.448-.973-5.115-1.306-8-1v-3zM23.5 187.5h11v4c-.904-.709-1.237-1.709-1-3-3.542.313-6.875-.021-10-1zM104.5 188.5c-2.448.973-5.115 1.306-8 1 .268 1.599-.066 2.932-1 4v-5h9z"/><path d="M51.5 212.5c-.992-.172-1.658.162-2 1-8.097-5.118-13.097-12.451-15-22v-4h-11c-1.312-.645-2.312-1.645-3-3a13.115 13.115 0 017-1v-3a113.156 113.156 0 019.5 4c.934 11.54 5.767 20.873 14.5 28zM412.5 246.5v-16c-9.614.621-14.614 5.955-15 16a25.879 25.879 0 01-10-1 68.289 68.289 0 015.5-13 17.842 17.842 0 015.5-4.5c-7.176-3.184-10.01-8.684-8.5-16.5 1.076-2.579 2.909-4.246 5.5-5 8.191-1.828 16.524-2.494 25-2v42h-8zM203.5 211.5c1.424-2.015 2.09-4.348 2-7h12l3 42h-9c.31-3.213-.023-6.213-1-9a942.279 942.279 0 00-1.5-25 735.062 735.062 0 01-10.5 34h-8a826.247 826.247 0 01-9-31c.188-1.603-.312-2.937-1.5-4a162.597 162.597 0 00-.5 18 242.945 242.945 0 01-1 17h-8a73.314 73.314 0 001-12 458.725 458.725 0 013-30h13a311.271 311.271 0 008 29 422.354 422.354 0 018-22zM261.5 204.5v42h-9v-35h-15v35h-8v-42h32zM281.5 204.5h13c4.339 14.017 8.673 28.017 13 42h-11a40.016 40.016 0 00-2-11c-5.219-1.304-10.386-1.304-15.5 0a65.102 65.102 0 00-2.5 11h-10c4.996-13.994 9.996-27.994 15-42zm26 0h33v7h-12v35h-9v-35c-3.798-.983-7.798-1.317-12-1v-6zM356.5 229.5a445.739 445.739 0 0015.5-19c1.559-1.717 2.392-3.717 2.5-6h7v42h-8c.166-9.339 0-18.673-.5-28-.717.544-1.217 1.211-1.5 2a6183.137 6183.137 0 00-13.5 17c-2.06 2.786-3.56 5.786-4.5 9h-7v-42h8c-.166 9.339 0 18.673.5 28 1.039-.744 1.539-1.744 1.5-3z"/><path d="M261.5 204.5h-32v42h8v-22c.992 7.482 1.325 15.148 1 23h-10v-44c11.179-.328 22.179.005 33 1zM217.5 204.5h-12c.09 2.652-.576 4.985-2 7l1-8c4.532-.318 8.866.015 13 1zM307.5 204.5v6c4.202-.317 8.202.017 12 1h-13c-.302-2.559.032-4.893 1-7zM412.5 211.5v12h-7c-5.867-.703-8.033-4.036-6.5-10l1.5-1.5a72.367 72.367 0 0112-.5zM51.5 212.5c3.262 2.38 6.93 3.38 11 3-1.108.79-2.442 1.29-4 1.5 1.237.232 2.237.732 3 1.5-4.732-.127-8.732-1.793-12-5 .342-.838 1.008-1.172 2-1zM101.5 181.5v3c2.885-.306 5.552.027 8 1-1.17 1.779-2.836 2.779-5 3h-9v5c-3.17 12.502-10.837 20.835-23 25a256.885 256.885 0 00-1 32h-1a342.838 342.838 0 011-37c-.219 1.175.114 2.175 1 3 13.106-6.525 19.94-17.192 20.5-32a23.996 23.996 0 018.5-3zM286.5 210.5a127.496 127.496 0 016 17 31.116 31.116 0 01-11 1c1.665-5.998 3.332-11.998 5-18zM356.5 229.5c.039 1.256-.461 2.256-1.5 3-.5-9.327-.666-18.661-.5-28h-8v3h-1v-4h10c-.326 8.849.007 17.516 1 26z"/><path d="M345.5 207.5h1v39h7c-2.448.973-5.115 1.306-8 1v-40zM412.5 246.5h8v-42c-8.476-.494-16.809.172-25 2 .847-1.466 2.18-2.3 4-2.5a242.43 242.43 0 0122-.5v44c-3.213.31-6.213-.023-9-1z"/><path d="M412.5 211.5c.985 4.134 1.318 8.468 1 13-2.885.306-5.552-.027-8-1h7v-12zM181.5 215.5l-2 14c-.166-6.009.001-12.009.5-18 1.188 1.063 1.688 2.397 1.5 4zM171.5 234.5a73.314 73.314 0 01-1 12h8c-2.787.977-5.787 1.31-9 1 .124-4.549.791-8.882 2-13zM210.5 237.5c.977 2.787 1.31 5.787 1 9h9c-3.125.979-6.458 1.313-10 1v-10zM381.5 246.5c-2.787.977-5.787 1.31-9 1 .327-9.182-.007-18.182-1-27 .283-.789.783-1.456 1.5-2 .5 9.327.666 18.661.5 28h8z"/></svg><svg viewBox="0 0 57 56" id="room" xmlns="http://www.w3.org/2000/svg"><path d="M0 56v-2h2V40.39A3.467 3.467 0 011 38c0-2.21 2.24-4 5-4a5.772 5.772 0 013 .82V30c0-3.98 3.7-6 11-6s11 2.02 11 6v4.82a5.772 5.772 0 013-.82c2.76 0 5 1.79 5 4a3.467 3.467 0 01-1 2.39V54h.96A8.963 8.963 0 0146 49.07V11.19C37.86 5.83 28.04 3.6 21 2.66V7h5a2.006 2.006 0 012 2v9a2.006 2.006 0 01-2 2H14a2.006 2.006 0 01-2-2V9a2.006 2.006 0 012-2h5V2.42C15.41 2.04 12.81 2 12 2V0c3.03 0 30.02.48 43.43 16.94l-1.55 1.27A33.139 33.139 0 0048 12.6v36.47A8.963 8.963 0 0155.04 54H57v2H0zm9-18c0-1.08-1.37-2-3-2s-3 .92-3 2a1.655 1.655 0 00.65 1.21l.35.29V54h5V38zm20-8c0-2.65-3.03-4-9-4s-9 1.35-9 4v9.79c1.84-1.16 4.9-1.79 9-1.79s7.16.63 9 1.79V30zm0 13c0-1.79-3.62-3-9-3s-9 1.21-9 3v3h18v-3zm0 5H11v6h18v-6zm5-12c-1.63 0-3 .92-3 2v16h5V39.51l.35-.3A1.674 1.674 0 0037 38c0-1.08-1.37-2-3-2zM14 9v9h2v-7h2v7h8V9H14zm33 42a6.971 6.971 0 00-5.73 3h11.46A6.971 6.971 0 0047 51zM27 35h-2v-5h2v5zM45.69 6.33l.99-1.74c.53.3 1.06.62 1.59.94l-1.06 1.7c-.5-.31-1.01-.61-1.52-.9zm-8.76-3.97L37.6.48a58.775 58.775 0 016.68 2.83l-.9 1.79a57.327 57.327 0 00-6.45-2.74z"/></svg><svg data-prefix="isty2z648" viewBox="0 0 69.03 69.094" id="tel" xmlns="http://www.w3.org/2000/svg"><path d="M67.06 64.26c.27-.88.4-1.807.58-2.7.31-1.5.63-3 .94-4.5.09-.446.18-.892.28-1.337a9.575 9.575 0 00-7.55-11.234l-8.29-1.63a9.557 9.557 0 00-11.23 7.545l-.2.934a57.674 57.674 0 01-23.86-23.88l.92-.19a9.569 9.569 0 007.54-11.234l-1.63-8.292A9.567 9.567 0 0013.33.198c-1.42.3-2.83.59-4.25.882-3.1.644-6.32.635-7.78 3.969a20.855 20.855 0 00-1.09 5.253 28.476 28.476 0 00-.16 5.837 43.215 43.215 0 003.35 13.6 66.811 66.811 0 0014.67 21.324 71.208 71.208 0 0013.41 10.578 54.569 54.569 0 0014.02 6.112 35.307 35.307 0 0013.26 1.16c2.63-.313 6.28-.7 7.73-3.283a6.826 6.826 0 00.57-1.366" fill-rule="evenodd" class="lpath-iielvjovg"/></svg><svg viewBox="0 0 46 46" id="time" xmlns="http://www.w3.org/2000/svg"><path d="M23 46a23 23 0 1123-23 23.029 23.029 0 01-23 23zm0-43.81A20.81 20.81 0 1043.81 23 20.84 20.84 0 0023 2.19zm0 22.36l-9.1-9.1 1.55-1.55L23 21.45l9.74-9.74 1.55 1.55zm17.52-.45h-5.47v-2.2h5.47v2.2zM24.1 40.52h-2.2v-5.47h2.2v5.47zM10.95 24.1H5.48v-2.2h5.47v2.2zM24.1 10.95h-2.2V5.48h2.2v5.47z"/></svg></svg>