<svg xmlns="http://www.w3.org/2000/svg" width="60" height="56" viewBox="0 0 60 56">
  <defs>
    <style>
      .cls-1 {
        fill: #414141;
        fill-rule: evenodd;
      }
    </style>
  </defs>
  <path id="ic9.svg" class="cls-1" d="M1502.88,1490.78c4.65,1.96,7.12,4.43,7.12,7.22,0,3.42-3.8,6.45-10.71,8.51l-0.58-1.91c5.82-1.74,9.29-4.21,9.29-6.6,0-1.9-2.21-3.86-6.09-5.46-0.42,2.13-3.3,4.12-8.09,5.57A3.986,3.986,0,0,1,1490,1501a6,6,0,0,1-.75-0.06v0.01l-13.62-2.5c-0.03.07-.04,0.14-0.07,0.2A5.083,5.083,0,0,1,1471,1502a4.229,4.229,0,0,1-2.15-.6l-13.25-7.65c-2.32,1.34-3.6,2.84-3.6,4.25,0,4.26,11.5,9,28,9a75.851,75.851,0,0,0,12.83-1.04l0.34,1.97A77.708,77.708,0,0,1,1480,1509c-14.75,0-30-4.11-30-11,0-1.4.68-3.4,3.63-5.39l-1.91-1.1a8.942,8.942,0,0,1,5.78-8.51,2.865,2.865,0,0,1,.5.07V1472c0-3.98,8.22-6.09,15.92-6.75l0.17,1.99c-9.61.82-14.09,3.33-14.09,4.76a1.9,1.9,0,0,0,.95,1.32c3.8-2.05,10.99-3.32,19.05-3.32,7.9,0,15.25,1.29,19.05,3.32a1.9,1.9,0,0,0,.95-1.32c0-2.04-7.79-5-20-5v-2c10.93,0,22,2.4,22,7v2.88a4.611,4.611,0,0,1,2.73-.88,5.271,5.271,0,0,1,5.27,5.27,10.682,10.682,0,0,1-3.49,8.17C1505.39,1488.56,1503.99,1489.84,1502.88,1490.78Zm-28.58,1.72,0.19,0.15a5.177,5.177,0,0,1,1.52,3.84l10.19,1.87a4.906,4.906,0,0,1-.2-1.36,5.856,5.856,0,0,1,.49-2.37l-12.81-2.5C1473.89,1492.26,1474.11,1492.38,1474.3,1492.5Zm-20.04-5.29a1.425,1.425,0,0,0-.76-0.21,1.5,1.5,0,0,0-.77,2.79l1.77,1.02h0l12.5,7.21V1498a5.98,5.98,0,0,1,.6-2.69Zm1.83-1.23,14.54,8.83-0.92.9a3.5,3.5,0,0,0-.71,2.29,1.944,1.944,0,0,0,2,2,3.111,3.111,0,0,0,2.71-2.11,3.48,3.48,0,0,0-.55-3.74c-4.05-2.42-14.89-8.94-14.89-8.94a1.486,1.486,0,0,0-.77-0.21A1.5,1.5,0,0,0,1456.09,1485.98ZM1480,1472c-6.82,0-13.11.96-16.85,2.49,3.37,1.36,9.25,2.51,16.85,2.51s13.48-1.15,16.84-2.5C1493.08,1472.96,1486.79,1472,1480,1472Zm20,3.1c-3.67,2.57-11.87,3.9-20,3.9s-16.33-1.33-20-3.9v8.82c1.5,0.9,5.2,3.12,8.63,5.19l20.83,4.06-0.56,1.17c-0.05.09-.11,0.21-0.19,0.35a4.223,4.223,0,0,0-.71,2.31,1.77,1.77,0,0,0,2,2,2.032,2.032,0,0,0,2-2,4.326,4.326,0,0,0-.25-1.63l1.86-.74a5.25,5.25,0,0,1,.31,1.35c4.41-1.44,6.08-3.13,6.08-3.98v-16.9Zm4.73,0.9a2.9,2.9,0,0,0-2.73,2.17v10.73c0.99-.86,2.17-1.95,3.09-2.87a8.671,8.671,0,0,0,2.91-6.76A3.278,3.278,0,0,0,1504.73,1476ZM1490,1459h-6a1.86,1.86,0,0,0-2,2v2h-2v-2a3.822,3.822,0,0,1,4-4h6a1.944,1.944,0,0,0,2-2v-2h2v2A3.916,3.916,0,0,1,1490,1459Zm-14,6a1.732,1.732,0,0,0-2-2h-7c-2.32,0-4-1.5-4-3.56a3.751,3.751,0,0,1,4-3.44h1c1.44,0,2-.56,2-2v-1h2v1a3.643,3.643,0,0,1-4,4h-1a1.819,1.819,0,0,0-2,1.44,1.763,1.763,0,0,0,2,1.56h7a3.68,3.68,0,0,1,4,4v3h-2v-3Z" transform="translate(-1450 -1453)"/>
</svg>

