<svg xmlns="http://www.w3.org/2000/svg" width="60" height="59" viewBox="0 0 60 59">
  <defs>
    <style>
      .cls-1 {
        fill: #414141;
        fill-rule: evenodd;
      }
    </style>
  </defs>
  <path id="ic1.svg" class="cls-1" d="M1522.55,1390.9l-3.19-3.21,1.45-1.47,3.19,3.22Zm-14.57-5.32a15.894,15.894,0,0,0-3.73,10.22v5.2h-2.05v-5.2a17.943,17.943,0,0,1,4.22-11.56l10.81-12.79a1.506,1.506,0,0,0,.36-0.94,1.524,1.524,0,0,0-2.66-1.09l-13.78,15.1a2.983,2.983,0,0,1-2.17.95,3.084,3.084,0,0,1-.68-0.08,5.4,5.4,0,0,1-8.62,0,3.084,3.084,0,0,1-.68.08,2.944,2.944,0,0,1-2.16-.95l-13.78-15.1a1.518,1.518,0,0,0-1.14-.51,1.489,1.489,0,0,0-1.53,1.6,1.455,1.455,0,0,0,.37.94l10.8,12.79a17.943,17.943,0,0,1,4.22,11.56v5.2h-2.05v-5.2a15.839,15.839,0,0,0-3.73-10.22l-10.81-12.79a3.619,3.619,0,0,1,2.73-5.95,3.593,3.593,0,0,1,2.65,1.18l13.78,15.09a0.843,0.843,0,0,0,.65.29,0.892,0.892,0,0,0,.89-0.89v-1.46a7.232,7.232,0,0,1-3.08-5.93v-4.23a5.515,5.515,0,0,1-2.05-4.46,9.608,9.608,0,0,1,1.17-4.52l0.73-1.23,0.93,1.09c0.47,0.55,1.97,1.97,3.32,1.97h3.08a7.219,7.219,0,0,1,7.18,7.24v4.14a7.249,7.249,0,0,1-3.07,5.93v1.46a0.885,0.885,0,0,0,1.54.6l13.78-15.09a3.57,3.57,0,0,1,6.22,2.49,3.527,3.527,0,0,1-.85,2.28Zm-13.99-.11a3.187,3.187,0,0,0,2.6-1.25,2.955,2.955,0,0,1-.55-1.71v-0.48a6.35,6.35,0,0,1-4.1,0v0.48a2.955,2.955,0,0,1-.55,1.71A3.187,3.187,0,0,0,1493.99,1385.47Zm5.13-10.35v-4.14a5.156,5.156,0,0,0-5.13-5.17h-3.08a6.138,6.138,0,0,1-3.74-1.59,7.4,7.4,0,0,0-.36,2.21c0,1.43.47,3.2,4.14,4.22l-0.55,2a12.052,12.052,0,0,1-1.54-.55v3.02A5.13,5.13,0,1,0,1499.12,1375.12Zm10.26-9.31h-2.05a13.531,13.531,0,0,0-5.6-10.97l1.19-1.68A15.624,15.624,0,0,1,1509.38,1365.81Zm-30.48,3.06a15.812,15.812,0,0,1,.3-7.38l1.98,0.58a13.466,13.466,0,0,0-.53,3.74,13.842,13.842,0,0,0,.26,2.65Zm36.64-6.17h-4.37l-0.18-.8a17.667,17.667,0,0,0-2.48-5.85l-0.47-.7,2.97-3-3.68-3.71-2.97,3-0.7-.47a17.022,17.022,0,0,0-5.79-2.51l-0.8-.18v-4.41h-6.16v4.41l-0.79.18a17.249,17.249,0,0,0-5.8,2.5l-0.7.48-2.97-3-3.68,3.71,2.97,3-0.46.7a17.461,17.461,0,0,0-2.48,5.85l-0.19.8h-4.37v2.07h-2.05v-4.14h4.8a19.638,19.638,0,0,1,2.13-5.01l-3.25-3.27,6.58-6.64,3.25,3.27a19.535,19.535,0,0,1,4.96-2.14V1342h10.26v4.84a19.6,19.6,0,0,1,4.97,2.14l3.24-3.27,6.58,6.64-3.24,3.27a19.971,19.971,0,0,1,2.12,5.01h4.8v4.14h-2.05v-2.07Zm-50.09,28.19-1.45-1.47,3.19-3.21,1.45,1.46Zm13.19,3.6-2.54,3.8-1.7-1.15,2.53-3.8Zm34.82,2.67-1.74,1.08-2.33-3.81,1.75-1.09Z" transform="translate(-1464 -1342)"/>
</svg>

