<svg xmlns="http://www.w3.org/2000/svg" width="60" height="60" viewBox="0 0 60 60">
  <defs>
    <style>
      .cls-1 {
        fill: #414141;
        fill-rule: evenodd;
      }
    </style>
  </defs>
  <path id="ic3.svg" class="cls-1" d="M1345,1272.5v-1a3.6,3.6,0,0,1,3.5-3.5,3.5,3.5,0,0,1,3.5,3.5v1a3.5,3.5,0,0,1-3.5,3.5A3.543,3.543,0,0,1,1345,1272.5Zm5,0v-1a1.5,1.5,0,0,0-1.5-1.5,1.588,1.588,0,0,0-1.5,1.5v1a1.538,1.538,0,0,0,1.5,1.5A1.5,1.5,0,0,0,1350,1272.5Zm10,15.5h-23v-2h2.18a2.972,2.972,0,0,1,.12-2.32c0.07-.14,1.57-3.06,2.23-4.27a2.847,2.847,0,0,1,2.54-1.41h8.86a2.847,2.847,0,0,1,2.54,1.41c0.66,1.21,2.15,4.13,2.22,4.26a2.947,2.947,0,0,1,.13,2.33H1360v2Zm-14-2h5v-2h-5v2Zm9.9-1.44s-1.53-2.99-2.18-4.19a0.9,0.9,0,0,0-.79-0.37h-8.86a0.9,0.9,0,0,0-.79.37c-0.65,1.2-2.19,4.21-2.19,4.21a0.958,0.958,0,0,0-.09.42,1,1,0,0,0,1,1h2v-2a2.006,2.006,0,0,1,2-2h5a2.006,2.006,0,0,1,2,2v2h2a1,1,0,0,0,1-1A0.976,0.976,0,0,0,1355.9,1284.56Zm6.1,7.44h-11.73l-9.77,5.77a1.694,1.694,0,0,1-.85.23,1.567,1.567,0,0,1-.81-0.22,1.644,1.644,0,0,1-.84-1.44V1292h-3a3.009,3.009,0,0,1-3-3v-6h2v6a1,1,0,0,0,1,1h5v5.74l9.72-5.74H1362a1,1,0,0,0,1-1v-22a1,1,0,0,0-1-1h-27a1,1,0,0,0-1,1v14h-2v-14a3.009,3.009,0,0,1,3-3h27a3.009,3.009,0,0,1,3,3v22A3.009,3.009,0,0,1,1362,1292Zm-35,1.11v2.2c1.64,0.63,5.95,2.28,7.81,3.12,0.06,0.03.23,0.13,0.23,0.13a4.032,4.032,0,0,1,1.8,2.31c1.22,4.14,2.86,13.21,3.01,14.06a3.79,3.79,0,0,1,.15,1.07,3.906,3.906,0,0,1-.56,2H1350v2h-41a4,4,0,0,1-4-4,3.79,3.79,0,0,1,.15-1.07c0.15-.85,1.79-9.92,3.01-14.06a4.032,4.032,0,0,1,1.8-2.31,2.167,2.167,0,0,1,.23-0.12c1.86-.85,6.17-2.5,7.81-3.13v-2.58a6.992,6.992,0,0,1-3-5.73v-5.28a8.271,8.271,0,0,1-2-5.72,7.7,7.7,0,0,1,1.4-3.89l0.87-1.22,0.8,1.27c1.18,1.88,2.67,2.84,4.43,2.84h3.5c3.81,0,6,2.55,6,7v5A7.4,7.4,0,0,1,1327,1293.11ZM1314,1318h17v-11a1,1,0,0,0-1-1h-15a1,1,0,0,0-1,1v11Zm-2.98-17.75a2.044,2.044,0,0,0-.94,1.18c-1.22,4.15-2.96,13.8-2.97,13.9l-0.03.1a2.239,2.239,0,0,0-.08.57,2.006,2.006,0,0,0,2,2h3v-4h-2v-2h2v-5a3.009,3.009,0,0,1,3-3h15a3.009,3.009,0,0,1,3,3v5h2v2h-2v4h3a2.006,2.006,0,0,0,2-2,2.239,2.239,0,0,0-.08-0.57l-0.03-.1c-0.01-.1-1.75-9.75-2.97-13.9a1.981,1.981,0,0,0-.9-1.15c-1.67-.77-5.44-2.23-7.3-2.94a4.677,4.677,0,0,1-8.44,0C1316.43,1298.05,1312.66,1299.51,1311.02,1300.25ZM1328,1282c0-5-3.01-5-4-5h-3.5a6.676,6.676,0,0,1-5.15-2.46,3.9,3.9,0,0,0-.35,1.46c0,1.93.81,5,3,5h1v2h-1a4.089,4.089,0,0,1-1-.13V1287a5,5,0,0,0,5,5h1v2h-1a6.652,6.652,0,0,1-2-.33V1296a2.563,2.563,0,0,0,5,0v-4.1l0.57-.27c1.39-.66,2.43-2.65,2.43-4.63v-5Zm5,42h-17v-2h17v2Z" transform="translate(-1305 -1264)"/>
</svg>

