<svg xmlns="http://www.w3.org/2000/svg" width="57" height="56" viewBox="0 0 57 56">
  <defs>
    <style>
      .cls-1 {
        fill: #414141;
        fill-rule: evenodd;
      }
    </style>
  </defs>
  <path id="ic4.svg" class="cls-1" d="M1369,1405v-2h2v-13.61a3.467,3.467,0,0,1-1-2.39c0-2.21,2.24-4,5-4a5.772,5.772,0,0,1,3,.82V1379c0-3.98,3.7-6,11-6s11,2.02,11,6v4.82a5.772,5.772,0,0,1,3-.82c2.76,0,5,1.79,5,4a3.467,3.467,0,0,1-1,2.39V1403h0.96a8.963,8.963,0,0,1,7.04-4.93v-37.88c-8.14-5.36-17.96-7.59-25-8.53V1356h5a2.006,2.006,0,0,1,2,2v9a2.006,2.006,0,0,1-2,2h-12a2.006,2.006,0,0,1-2-2v-9a2.006,2.006,0,0,1,2-2h5v-4.58c-3.59-.38-6.19-0.42-7-0.42v-2c3.03,0,30.02.48,43.43,16.94l-1.55,1.27a33.139,33.139,0,0,0-5.88-5.61v36.47a8.963,8.963,0,0,1,7.04,4.93H1426v2h-57Zm9-18c0-1.08-1.37-2-3-2s-3,.92-3,2a1.655,1.655,0,0,0,.65,1.21l0.35,0.29V1403h5v-16Zm20-8c0-2.65-3.03-4-9-4s-9,1.35-9,4v9.79c1.84-1.16,4.9-1.79,9-1.79s7.16,0.63,9,1.79V1379Zm0,13c0-1.79-3.62-3-9-3s-9,1.21-9,3v3h18v-3Zm0,5h-18v6h18v-6Zm5-12c-1.63,0-3,.92-3,2v16h5v-14.49l0.35-.3a1.674,1.674,0,0,0,.65-1.21C1406,1385.92,1404.63,1385,1403,1385Zm-20-27h0v9h2v-7h2v7h8v-9h-12Zm33,42a6.971,6.971,0,0,0-5.73,3h11.46A6.971,6.971,0,0,0,1416,1400Zm-20-16h-2v-5h2v5Zm18.69-28.67,0.99-1.74c0.53,0.3,1.06.62,1.59,0.94l-1.06,1.7C1415.71,1355.92,1415.2,1355.62,1414.69,1355.33Zm-8.76-3.97,0.67-1.88a58.775,58.775,0,0,1,6.68,2.83l-0.9,1.79A57.327,57.327,0,0,0,1405.93,1351.36Z" transform="translate(-1369 -1349)"/>
</svg>

