<svg xmlns="http://www.w3.org/2000/svg" width="46" height="46" viewBox="0 0 46 46">
  <defs>
    <style>
      .cls-1 {
        fill: #414141;
        fill-rule: evenodd;
      }
    </style>
  </defs>
  <path id="ic8.svg" class="cls-1" d="M1405,1498a23,23,0,1,1,23-23A23.029,23.029,0,0,1,1405,1498Zm0-43.81a20.81,20.81,0,1,0,20.81,20.81A20.84,20.84,0,0,0,1405,1454.19Zm0,22.36-9.1-9.1,1.55-1.55,7.55,7.55,9.74-9.74,1.55,1.55Zm17.52-.45h-5.47v-2.2h5.47v2.2Zm-16.42,16.42h-2.2v-5.47h2.2v5.47Zm-13.15-16.42h-5.47v-2.2h5.47v2.2Zm13.15-13.15h-2.2v-5.47h2.2v5.47Z" transform="translate(-1382 -1452)"/>
</svg>

